<svg width="75" height="75" viewBox="0 0 75 75" fill="none" xmlns="http://www.w3.org/2000/svg">
<path fill-rule="evenodd" clip-rule="evenodd" d="M53.9062 47.7276C53.9062 54.3306 47.3126 60.9375 37.5 60.9375C27.6874 60.9375 21.0938 54.3306 21.0938 47.7276C21.0938 40.8787 25.5483 32.3494 30.784 24.9242C33.1505 21.5681 35.5255 18.6447 37.3827 16.4852C39.2753 18.8135 41.7311 21.9829 44.178 25.5598C46.7292 29.2892 49.2107 33.3746 51.0391 37.3506C52.901 41.3995 53.9062 44.9545 53.9062 47.7276ZM16.4062 47.7276C16.4062 34.9851 28.4326 19.6195 34.3237 12.857C36.2346 10.6634 37.5 9.375 37.5 9.375C37.5 9.375 38.7123 10.7151 40.5556 12.9599C46.4014 20.0789 58.5938 36.297 58.5938 47.7276C58.5938 57.6121 49.1498 65.625 37.5 65.625C25.8502 65.625 16.4062 57.6121 16.4062 47.7276ZM26.9492 39.8438H31.992C31.0432 42.0092 30.4688 44.0628 30.4688 45.8099C30.4688 48.4925 33.0929 51.5625 37.5 51.5625V56.25C31.0279 56.25 25.7812 51.5758 25.7812 45.8099C25.7812 43.8858 26.2289 41.8593 26.9492 39.8438Z" fill="black"/>
</svg>
