<svg width="53" height="53" viewBox="0 0 53 53" fill="none" xmlns="http://www.w3.org/2000/svg">
<g clip-path="url(#clip0_2_197)">
<path d="M45.5358 18.6604C43.2171 8.45793 34.3175 3.86459 26.5 3.86459C26.5 3.86459 26.5 3.86459 26.4779 3.86459C18.6825 3.86459 9.76083 8.43584 7.44208 18.6383C4.85833 30.0333 11.8367 39.6838 18.1525 45.7567C20.4933 48.0092 23.4967 49.1354 26.5 49.1354C29.5033 49.1354 32.5067 48.0092 34.8254 45.7567C41.1412 39.6838 48.1196 30.0554 45.5358 18.6604ZM26.5 29.7242C22.6575 29.7242 19.5437 26.6104 19.5437 22.7679C19.5437 18.9254 22.6575 15.8117 26.5 15.8117C30.3425 15.8117 33.4562 18.9254 33.4562 22.7679C33.4562 26.6104 30.3425 29.7242 26.5 29.7242Z" fill="#171717"/>
</g>
<defs>
<clipPath id="clip0_2_197">
<rect width="53" height="53" fill="white"/>
</clipPath>
</defs>
</svg>
