<svg width="75" height="75" viewBox="0 0 75 75" fill="none" xmlns="http://www.w3.org/2000/svg">
<path fill-rule="evenodd" clip-rule="evenodd" d="M32.8128 25.768L32.8128 25.7543L19.5454 25.7541L32.2719 21.1555L32.2705 21.1517C32.5142 21.0902 32.7665 21.0684 33.0175 21.0871C33.0506 21.0896 33.0837 21.0927 33.1167 21.0966L33.1172 21.0967C33.4619 21.1373 33.7932 21.2539 34.0873 21.4383L34.0874 21.4383C34.3814 21.6226 34.6309 21.87 34.8177 22.1625L34.8181 22.163C35.0048 22.4555 35.1243 22.7859 35.1678 23.1303L35.1679 23.1309C35.2114 23.4754 35.1778 23.8253 35.0695 24.1552L35.0694 24.1555C34.9611 24.4855 34.7809 24.7873 34.5417 25.0391L34.5414 25.0393C34.3023 25.2909 34.0102 25.4863 33.6863 25.6113L33.6857 25.6115C33.6553 25.6232 33.6246 25.6343 33.5937 25.6448C33.3422 25.7298 33.0781 25.7715 32.8128 25.768ZM9.375 24.4443V30.4419L32.7646 30.4421C33.6529 30.4521 34.5364 30.2932 35.3678 29.9725L35.3684 29.9723C36.0013 29.7281 36.5935 29.3941 37.1277 28.982C37.4121 28.7626 37.6801 28.5211 37.9289 28.2592L37.9291 28.259C38.6452 27.5052 39.1849 26.6017 39.5092 25.6138L39.5093 25.6135C39.8335 24.6256 39.9342 23.5779 39.8042 22.5463L39.8041 22.5456C39.6739 21.514 39.3162 20.5242 38.7568 19.6477L38.7565 19.6473C38.1969 18.7707 37.4496 18.0295 36.5686 17.4773L36.5686 17.4773C36.2624 17.2854 35.9427 17.118 35.6126 16.9761C34.9927 16.7097 34.336 16.5334 33.6622 16.4542L33.6617 16.4542C32.6579 16.3362 31.6408 16.4367 30.68 16.7482L30.6792 16.7462L30.6073 16.7722L30.5989 16.775L30.5979 16.7753L30.5979 16.7756L9.375 24.4443ZM9.375 44.5267V49.3418L40.3261 60.353L40.3258 60.354C41.4459 60.8009 42.6508 60.9952 43.8545 60.923C44.3174 60.8953 44.7757 60.8284 45.2247 60.7237C45.9435 60.5561 46.6384 60.2918 47.2901 59.9363C48.3488 59.3587 49.2671 58.5546 49.9795 57.5813C50.692 56.608 51.181 55.4895 51.4118 54.3055C51.6427 53.1215 51.6095 51.9012 51.3149 50.7314C51.0202 49.5617 50.4712 48.4714 49.707 47.5382C49.2366 46.9638 48.6918 46.4576 48.0886 46.0322C47.7118 45.7665 47.3123 45.5322 46.8938 45.3326C45.807 44.8141 44.6194 44.5413 43.4154 44.5338V44.5268L9.375 44.5267ZM43.3836 49.2147L23.0041 49.2146L42.1504 56.0261L42.1487 56.031C42.6038 56.1989 43.0891 56.2707 43.574 56.2417C44.0894 56.2108 44.5918 56.0665 45.0451 55.8191C45.4985 55.5718 45.8917 55.2274 46.1968 54.8107C46.5019 54.3939 46.7113 53.9149 46.8102 53.4079C46.909 52.9009 46.8948 52.3783 46.7686 51.8774C46.6424 51.3765 46.4073 50.9096 46.0801 50.51C45.7529 50.1104 45.3415 49.7879 44.8754 49.5655C44.41 49.3434 43.9013 49.2266 43.3857 49.2234L43.3835 49.2234L43.3835 49.2225L43.3836 49.2147ZM53.9485 26.3628L53.9465 26.3639L51.6413 22.2824L51.6387 22.2777L51.6433 22.2751C52.8914 21.5707 54.2843 21.1619 55.7151 21.0801C55.9226 21.0682 56.1301 21.0633 56.3373 21.0652C57.5602 21.0766 58.7712 21.3273 59.9013 21.8053C61.2229 22.3643 62.3986 23.2193 63.3377 24.3044C64.2769 25.3895 64.9546 26.6758 65.3185 28.0642C65.6824 29.4525 65.7229 30.9059 65.4368 32.3124C65.1507 33.7188 64.5457 35.0409 63.6683 36.1766C62.9182 37.1477 61.986 37.9604 60.9261 38.5705C60.7465 38.674 60.5631 38.7716 60.3763 38.8632C59.0879 39.4949 57.6718 39.8224 56.2369 39.8204V39.8197H9.375V35.1322H56.2435L56.2435 35.1271C56.9602 35.1281 57.6676 34.9645 58.3112 34.649C58.9548 34.3334 59.5174 33.8742 59.9557 33.3069C60.394 32.7396 60.6962 32.0792 60.8391 31.3766C60.982 30.674 60.9618 29.948 60.78 29.2545C60.5982 28.561 60.2597 27.9184 59.7906 27.3764C59.3214 26.8343 58.7341 26.4072 58.074 26.128C57.4138 25.8487 56.6984 25.7248 55.9828 25.7657C55.268 25.8066 54.5721 26.0108 53.9485 26.3628Z" fill="black"/>
</svg>
